<svg xmlns="http://www.w3.org/2000/svg" viewBox="0 0 900 520"><defs><linearGradient id="bg" x1="0" y1="0" x2="1" y2="1"><stop stop-color="#092f50"/><stop offset="1" stop-color="#031726"/></linearGradient><linearGradient id="le" x1="0" x2="1"><stop stop-color="#8a5d2f"/><stop offset="1" stop-color="#4c2f1e"/></linearGradient></defs><rect width="900" height="520" fill="url(#bg)"/><g transform="translate(160 92)"><rect x="60" y="170" width="470" height="86" rx="8" fill="#e8d7ad"/><rect x="45" y="154" width="500" height="32" rx="6" fill="#b88a42"/><rect x="95" y="80" width="410" height="92" rx="7" fill="#f4e8c8"/><rect x="76" y="64" width="445" height="28" rx="6" fill="#244e68"/><rect x="140" y="0" width="330" height="80" rx="7" fill="#f7edd4"/><rect x="120" y="-15" width="370" height="28" rx="6" fill="url(#le)"/><path d="M135 11v41M165 11v41M195 11v41M225 11v41M255 11v41M285 11v41M315 11v41M345 11v41M375 11v41M405 11v41M435 11v41M465 11v41" stroke="#d3a34c" stroke-width="3" opacity=".75"/></g><circle cx="742" cy="110" r="34" fill="#d3a34c" opacity=".55"/></svg>